<svg xmlns="http://www.w3.org/2000/svg" xmlns:xlink="http://www.w3.org/1999/xlink" version="1.1" width="1663.725" height="426.003" viewBox="0 0 440.19389 112.71329" style="clip-rule:evenodd;fill-rule:evenodd;stroke-width:0.264583;image-rendering:optimizeQuality;shape-rendering:geometricPrecision;text-rendering:geometricPrecision">
  <g>
    <path style="opacity:1" fill="#FF008A" d="m 51.32916,1.789e-4 c -2.03252,0.4220687 -3.66395,1.480402 -4.89479,3.175 C 31.50896,33.114106 16.51595,63.012022 1.45521,92.868928 0.88115,94.28339 0.39608,95.694413 0,97.102261 v 4.233329 c 1.4182,6.18067 5.21057,9.97294 11.37708,11.37709 H 15.875 c 3.90318,-0.78608 7.0341,-2.81464 9.39271,-6.08542 7.23185,-14.287499 14.46397,-28.574999 21.69583,-42.862498 3.61606,-3.52769 7.23186,-3.52769 10.84792,0 6.173519,12.34731 12.347306,24.694356 18.520829,37.041668 0.474398,0.73951 1.04775,1.40097 1.719792,1.98437 3.792537,2.22197 7.1882,1.73699 10.186458,-1.45521 6.329362,-12.394402 12.591261,-24.829818 18.785421,-37.306245 0.48498,-0.837936 1.14644,-1.499394 1.98437,-1.984375 3.674,-1.87034 6.80482,-1.208881 9.39271,1.984375 7.09665,14.369785 14.32851,28.657285 21.69583,42.862505 2.23117,3.0036 5.14318,4.90285 8.72195,5.72058 0.0302,0.0289 0.0445,0.0735 0.0765,0.10076 h 4.49792 c 7.9e-4,-1.4e-4 0.001,-2.6e-4 0.002,-5.2e-4 h 0.063 c 0.0754,-0.0196 0.14852,-0.0505 0.22376,-0.0708 1.39402,-0.30625 2.69048,-0.76975 3.88348,-1.3994 0.39442,-0.17346 0.79397,-0.32107 1.18443,-0.51418 0.90632,-0.69921 1.73294,-1.47821 2.51767,-2.29908 0.33077,-0.34383 0.64951,-0.70681 0.95653,-1.08883 0.20393,-0.24272 0.43233,-0.461 0.62684,-0.71313 0.0825,-0.1783 0.14666,-0.38134 0.22272,-0.56844 7.1359,-14.097871 14.27213,-28.195678 21.408,-42.293546 3.61606,-3.527689 7.23186,-3.527689 10.84792,0 6.17352,12.347311 12.34731,24.694356 18.52083,37.041666 0.4744,0.73951 1.04775,1.40097 1.71979,1.98437 3.79254,2.22198 7.1882,1.73699 10.18646,-1.4552 6.32936,-12.394409 12.59125,-24.829825 18.78542,-37.306252 0.48498,-0.837936 1.14643,-1.499394 1.98437,-1.984375 3.66828,-1.867427 6.79476,-1.209477 9.3803,1.970939 0.003,0.0062 0.002,0.0072 0.006,0.01344 0.002,-0.0011 0.003,-0.0016 0.005,-0.0026 8e-4,7.94e-4 0.001,0.0016 0.002,0.0026 7.09666,14.369785 14.32851,28.657285 21.69583,42.862498 2.31053,3.11043 5.34506,5.04626 9.10074,5.81257 0.007,0.002 0.013,0.006 0.0201,0.008 h 0.007 4.22611 0.007 c 0.003,-2.6e-4 0.003,-0.002 0.003,-0.003 3.7641,-0.76376 6.80355,-2.7028 9.11781,-5.81825 7.36732,-14.20522 14.59918,-28.49272 21.69583,-42.862505 2.58789,-3.193256 5.71871,-3.854714 9.39271,-1.984375 0.83794,0.484981 1.49939,1.14644 1.98438,1.984375 6.19416,12.476427 12.45605,24.911844 18.78541,37.306245 2.99826,3.1922 6.39392,3.67719 10.18646,1.45521 0.67204,-0.5834 1.24539,-1.24486 1.71979,-1.98437 6.17353,-12.347312 12.34731,-24.694358 18.52084,-37.041668 3.61606,-3.52769 7.23185,-3.52769 10.84791,0 7.23186,14.2875 14.46401,28.574999 21.69583,42.862498 2.35861,3.27078 5.48953,5.29934 9.39271,6.08542 h 4.49792 c 6.16651,-1.40414 9.95889,-5.19642 11.37708,-11.37709 v -4.233329 c -0.39608,-1.407847 -0.88114,-2.81887 -1.45521,-4.233333 C 423.67786,63.011842 408.68485,33.113926 393.75944,3.175 392.5286,1.4804018 390.89718,0.4220686 388.86465,0 h -2.11667 c -2.02803,0.4204282 -3.65972,1.4787614 -4.89479,3.175 -6.26189,12.523602 -12.52352,25.047309 -18.78542,37.570832 -2.61461,2.927086 -5.65732,3.500173 -9.12812,1.719792 -0.83794,-0.484981 -1.4994,-1.14644 -1.98438,-1.984375 C 345.76111,28.004822 339.49922,15.5693 333.16986,3.175 330.17027,-0.0718028 326.77461,-0.5568712 322.9834,1.7197917 322.31136,2.3031185 321.738,2.9645768 321.26361,3.7041666 310.52896,25.262864 299.72642,46.779925 288.85618,68.255876 277.98596,46.779925 267.18342,25.262862 256.44835,3.7047776 c -0.4744,-0.7395898 -1.04775,-1.4010481 -1.71979,-1.9843749 -3.79122,-2.2766629 -7.18688,-1.7915946 -10.18646,1.4552083 -6.32936,12.3943 -12.59125,24.829822 -18.78542,37.306249 -0.48498,0.837935 -1.14643,1.499394 -1.98437,1.984375 -3.4708,1.780381 -6.51351,1.207294 -9.12813,-1.719792 -6.26189,-12.523523 -12.52352,-25.04723 -18.78541,-37.570832 -1.23508,-1.6962385 -2.86676,-2.7545718 -4.89479,-3.175 h -2.11667 c -2.03253,0.4220686 -3.66395,1.480402 -4.89479,3.175 -10.82595,21.71604 -21.72811,43.385842 -32.62533,65.058646 -10.8666,-21.4689 -21.66546,-42.978932 -32.39698,-64.5299114 -0.4744,-0.7395898 -1.04776,-1.4010482 -1.7198,-1.984375 -3.79121,-2.2766628 -7.18687,-1.7915946 -10.18645,1.4552083 -6.32937,12.3943001 -12.591261,24.8298231 -18.785421,37.3062501 -0.484981,0.837935 -1.14644,1.499393 -1.984375,1.984374 -3.470804,1.780382 -6.513513,1.207294 -9.128125,-1.719791 C 70.864145,28.222489 64.602516,15.698781 58.34062,3.1751789 57.10555,1.4789405 55.47386,0.4206071 53.44583,1.789e-4 Z"></path>
  </g>
</svg>